<?xml version="1.0" encoding="UTF-8"?>
<svg width="344px" height="512px" viewBox="0 0 344 512" version="1.1" xmlns="http://www.w3.org/2000/svg" xmlns:xlink="http://www.w3.org/1999/xlink">
    <!-- Generator: Sketch 46.1 (44463) - http://www.bohemiancoding.com/sketch -->
    <title>Shape</title>
    <desc>Created with Sketch.</desc>
    <defs></defs>
    <g id="Page-1" stroke="none" stroke-width="1" fill="none" fill-rule="evenodd">
        <g id="Simpleicons_Interface_light-bulb-outline" fill-rule="nonzero" fill="#F6EE79">
            <path d="M172,32 C249.312,32 312,94.688 312,172 C312,248.125 266.125,257 257.5,340 C257.5,347.75 251.25,354 243.5,354 L100.5,354 C92.75,354 86.5,347.75 86.5,340 L86.469,340 C77.875,257 32,248.125 32,172 C32,94.688 94.688,32 172,32 L172,32 Z M242,368 C249.75,368 256,374.25 256,382 C256,389.75 249.75,396 242,396 L102,396 C94.25,396 88,389.75 88,382 C88,374.25 94.25,368 102,368 L242,368 L242,368 Z M242,410 C249.75,410 256,416.25 256,424 C256,431.75 249.75,438 242,438 L102,438 C94.25,438 88,431.75 88,424 C88,416.25 94.25,410 102,410 L242,410 L242,410 Z M228,452 C228,467.469 215.469,480 200,480 L144,480 C128.531,480 116,467.469 116,452 L228,452 L228,452 Z M172,0 C77.156,0 0,77.156 0,172 C0,219.625 15.563,246.969 29.25,271.125 C40.875,291.563 50.938,309.281 54.531,342.219 C54.875,349.532 56.969,356.407 60.375,362.438 C57.563,368.375 56,375 56,382 C56,389.562 57.813,396.688 61.063,403 C57.813,409.312 56,416.438 56,424 C56,443.719 68.469,460.562 85.938,467.094 C92.625,492.906 116.125,512 144,512 L200,512 C227.875,512 251.375,492.906 258.062,467.094 C275.531,460.562 288,443.719 288,424 C288,416.438 286.156,409.312 282.906,403 C286.156,396.688 288,389.562 288,382 C288,375 286.438,368.375 283.625,362.469 C287.031,356.407 289.094,349.5 289.437,342.188 C293.062,309.283 303.093,291.594 314.718,271.126 C328.438,247 344,219.625 344,172 C344,77.156 266.844,0 172,0 L172,0 Z" id="Shape"></path>
        </g>
    </g>
</svg>