<?xml version="1.0" encoding="UTF-8"?>
<svg width="467px" height="539px" viewBox="0 0 467 539" version="1.1" xmlns="http://www.w3.org/2000/svg" xmlns:xlink="http://www.w3.org/1999/xlink">
    <!-- Generator: Sketch 47.1 (45422) - http://www.bohemiancoding.com/sketch -->
    <title>Group 6</title>
    <desc>Created with Sketch.</desc>
    <defs></defs>
    <g id="Page-1" stroke="none" stroke-width="1" fill="none" fill-rule="evenodd">
        <g id="Group-6">
            <path d="M233.638,0.34 L230.138,2.36 L4.157,132.83 L0.657,134.85 L0.657,403.87 L4.157,405.89 L230.138,536.36 L233.638,538.38 L237.138,536.36 L463.12,405.89 L466.62,403.87 L466.62,134.85 L463.12,132.83 L237.138,2.36 L233.638,0.34 Z M233.638,8.42 L459.62,138.89 L459.62,399.83 L233.638,530.3 L7.657,399.83 L7.657,138.89 L233.638,8.42 L233.638,8.42 Z" id="Fill-110" fill="#9F7A45"></path>
            <polygon id="Stroke-111" stroke="#9F7A45" stroke-width="4" points="447.55 392.87 447.55 145.86 233.638 22.35 19.722 145.86 19.722 392.87 233.638 516.37"></polygon>
            <polygon id="Stroke-112" stroke="#9F7A45" stroke-width="4" stroke-linejoin="round" points="233.638 22.35 19.722 392.87 447.55 392.87"></polygon>
            <path d="M233.637,145.86 L126.679,207.61 L126.679,331.11 L233.637,392.87 L340.6,331.11 L340.6,207.61 L233.637,145.86 Z M233.637,153.94 L333.6,211.65 L333.6,327.07 L233.637,384.78 L133.679,327.07 L133.679,211.65 L233.637,153.94 L233.637,153.94 Z" id="Fill-113" fill="#9F7A45"></path>
            <polygon id="Stroke-114" stroke="#9F7A45" stroke-width="3" stroke-linecap="round" stroke-linejoin="round" stroke-dasharray="0,8" points="141.679 322.45 141.679 216.27 233.637 163.18 325.6 216.27 325.6 322.45 233.637 375.54"></polygon>
            <path d="M126.679,331.11 L340.6,331.11 L233.637,145.86 L126.679,331.11 Z M233.637,392.87 L340.6,207.61 L126.679,207.61 L233.637,392.87 Z" id="Stroke-115" stroke="#9F7A45" stroke-width="4" stroke-linejoin="round"></path>
            <path d="M219.179,269.36 C219.179,261.37 225.652,254.9 233.638,254.9 C241.624,254.9 248.1,261.37 248.1,269.36 C248.1,277.35 241.624,283.82 233.638,283.82 C225.652,283.82 219.179,277.35 219.179,269.36 Z" id="Stroke-116" stroke="#9F7A45" stroke-width="4"></path>
            <path d="M233.636,207.61 L180.157,238.48 L180.157,300.24 L233.636,331.11 L287.12,300.24 L287.12,238.48 L233.636,207.61 Z M233.636,215.69 L280.12,242.53 L280.12,296.2 L233.636,323.03 L187.157,296.2 L187.157,242.53 L233.636,215.69 L233.636,215.69 Z" id="Fill-117" fill="#9F7A45"></path>
            <path d="M233.636,207.61 L180.157,300.24 L287.12,300.24 L233.636,207.61 Z M233.636,217.61 L278.45,295.24 L188.817,295.24 L233.636,217.61 L233.636,217.61 Z" id="Fill-118" fill="#9F7A45"></path>
            <path d="M265.11,145.86 C265.11,163.2 251.04,177.27 233.696,177.27 C216.347,177.27 202.283,163.2 202.283,145.86 C202.283,128.51 216.347,114.44 233.696,114.44 C251.04,114.44 265.11,128.51 265.11,145.86 Z M265.11,392.76 C265.11,410.11 251.04,424.18 233.696,424.18 C216.347,424.18 202.283,410.11 202.283,392.76 C202.283,375.41 216.347,361.35 233.696,361.35 C251.04,361.35 265.11,375.41 265.11,392.76 Z" id="Stroke-119" stroke="#9F7A45" stroke-width="4"></path>
            <path d="M248.1,448.18 C248.1,456.14 241.649,462.58 233.696,462.58 C225.742,462.58 219.294,456.14 219.294,448.18 C219.294,440.23 225.742,433.78 233.696,433.78 C241.649,433.78 248.1,440.23 248.1,448.18 Z" id="Stroke-120" stroke="#9F7A45" stroke-width="5"></path>
            <path d="M241.798,486.23 C241.798,490.71 238.171,494.33 233.696,494.33 C229.221,494.33 225.593,490.71 225.593,486.23 C225.593,481.76 229.221,478.13 233.696,478.13 C238.171,478.13 241.798,481.76 241.798,486.23 Z" id="Stroke-121" stroke="#9F7A45" stroke-width="4"></path>
            <path d="M248.1,90.54 C248.1,82.58 241.649,76.14 233.696,76.14 C225.742,76.14 219.294,82.58 219.294,90.54 C219.294,98.49 225.742,104.94 233.696,104.94 C241.649,104.94 248.1,98.49 248.1,90.54 Z" id="Stroke-122" stroke="#9F7A45" stroke-width="5"></path>
            <path d="M241.798,52.49 C241.798,48.01 238.171,44.39 233.696,44.39 C229.221,44.39 225.593,48.01 225.593,52.49 C225.593,56.96 229.221,60.59 233.696,60.59 C238.171,60.59 241.798,56.96 241.798,52.49 Z M40.413,269.36 C40.413,376.08 126.923,462.58 233.638,462.58 C340.35,462.58 426.86,376.08 426.86,269.36 C426.86,162.65 340.35,76.14 233.638,76.14 C126.923,76.14 40.413,162.65 40.413,269.36 Z" id="Stroke-123" stroke="#9F7A45" stroke-width="4"></path>
            <polygon id="Stroke-124" stroke="#9F7A45" stroke-width="4" stroke-linejoin="round" points="19.722 145.86 233.638 516.37 447.55 145.86"></polygon>
            <path d="M426.86,269.36 L376.25,269.36 L447.55,145.86 L340.6,207.61 L126.679,207.61 L19.722,145.86 L91.027,269.36 L40.413,269.36 C40.413,269.36 38.25,295.91 52.346,336.36 L19.722,392.87 L126.679,331.11 L340.6,331.11 L447.55,392.87 L414.93,336.36 C414.93,336.36 427.35,305.45 426.86,269.36 Z" id="Stroke-125" stroke="#9F7A45" stroke-width="3" stroke-linecap="round" stroke-linejoin="round" stroke-dasharray="0,8"></path>
            <path d="M233.637,516.37 L233.637,392.87 L233.637,516.37 Z M233.637,145.86 L233.637,22.35 L233.637,145.86 Z" id="Stroke-126" stroke="#9F7A45" stroke-width="4"></path>
        </g>
    </g>
</svg>