<?xml version="1.0" encoding="UTF-8"?>
<svg width="511px" height="511px" viewBox="0 0 511 511" version="1.1" xmlns="http://www.w3.org/2000/svg" xmlns:xlink="http://www.w3.org/1999/xlink">
    <!-- Generator: Sketch 47.1 (45422) - http://www.bohemiancoding.com/sketch -->
    <title>Group</title>
    <desc>Created with Sketch.</desc>
    <defs></defs>
    <g id="Page-1" stroke="none" stroke-width="1" fill="none" fill-rule="evenodd">
        <g id="Group" transform="translate(1.000000, 1.000000)">
            <path d="M409.63,343.855 L409.63,164.883 L254.638,75.397 L99.644,164.883 L99.644,343.855 L254.638,433.342 L409.63,343.855 Z M148.007,164.883 C148.007,191.594 126.354,213.247 99.644,213.247 C72.933,213.247 51.28,191.594 51.28,164.883 C51.28,138.173 72.933,116.52 99.644,116.52 C126.354,116.52 148.007,138.173 148.007,164.883 Z M344.24,254.36 C344.24,303.848 304.13,343.966 254.638,343.966 C205.15,343.966 165.032,303.848 165.032,254.36 C165.032,204.872 205.15,164.754 254.638,164.754 C304.13,164.754 344.24,204.872 344.24,254.36 Z" id="Stroke-34" stroke="#9F7A45" stroke-width="4"></path>
            <path d="M331.03,254.36 C331.03,296.552 296.83,330.754 254.638,330.754 C212.447,330.754 178.244,296.552 178.244,254.36 C178.244,212.168 212.447,177.966 254.638,177.966 C296.83,177.966 331.03,212.168 331.03,254.36 Z" id="Stroke-35" stroke="#9F7A45" stroke-width="7" stroke-linecap="round" stroke-linejoin="round"></path>
            <path d="M320.76,254.36 C320.76,290.879 291.16,320.482 254.638,320.482 C218.12,320.482 188.515,290.879 188.515,254.36 C188.515,217.841 218.12,188.237 254.638,188.237 C291.16,188.237 320.76,217.841 320.76,254.36 Z" id="Stroke-36" stroke="#9F7A45" stroke-width="2" stroke-linecap="round" stroke-linejoin="round" stroke-dasharray="0,8"></path>
            <path d="M303,254.36 C303,281.07 281.35,302.724 254.638,302.724 C227.928,302.724 206.274,281.07 206.274,254.36 C206.274,227.649 227.928,205.997 254.638,205.997 C281.35,205.997 303,227.649 303,254.36 Z M148.007,343.855 C148.007,370.566 126.354,392.219 99.644,392.219 C72.933,392.219 51.28,370.566 51.28,343.855 C51.28,317.144 72.933,295.492 99.644,295.492 C126.354,295.492 148.007,317.144 148.007,343.855 Z M458,164.883 C458,191.594 436.34,213.247 409.63,213.247 C382.92,213.247 361.27,191.594 361.27,164.883 C361.27,138.173 382.92,116.52 409.63,116.52 C436.34,116.52 458,138.173 458,164.883 Z M303,75.397 C303,102.108 281.35,123.761 254.638,123.761 C227.927,123.761 206.274,102.108 206.274,75.397 C206.274,48.687 227.927,27.034 254.638,27.034 C281.35,27.034 303,48.687 303,75.397 Z M303,433.342 C303,460.052 281.35,481.705 254.638,481.705 C227.927,481.705 206.274,460.052 206.274,433.342 C206.274,406.631 227.927,384.977 254.638,384.977 C281.35,384.977 303,406.631 303,433.342 Z M458,343.855 C458,370.566 436.34,392.22 409.63,392.22 C382.92,392.22 361.27,370.566 361.27,343.855 C361.27,317.144 382.92,295.492 409.63,295.492 C436.34,295.492 458,317.144 458,343.855 Z" id="Stroke-37" stroke="#9F7A45" stroke-width="4"></path>
            <path d="M254.638,75.397 L99.644,343.855 L409.63,343.855 L254.638,75.397 Z M254.638,433.342 L409.63,164.883 L99.644,164.883 L254.638,433.342 Z" id="Stroke-38" stroke="#9F7A45" stroke-width="4" stroke-linecap="round" stroke-linejoin="round"></path>
            <path d="M13.889,254.36 C13.889,387.322 121.676,495.109 254.638,495.109 C387.6,495.109 495.39,387.322 495.39,254.36 C495.39,121.398 387.6,13.611 254.638,13.611 C121.676,13.611 13.889,121.398 13.889,254.36 Z" id="Stroke-39" stroke="#9F7A45" stroke-width="7" stroke-linecap="round" stroke-linejoin="round"></path>
            <path d="M0.677,254.36 C0.677,394.619 114.379,508.321 254.638,508.321 C394.9,508.321 508.6,394.619 508.6,254.36 C508.6,114.101 394.9,0.399 254.638,0.399 C114.379,0.399 0.677,114.101 0.677,254.36 Z" id="Stroke-40" stroke="#9F7A45" stroke-width="2" stroke-linecap="round" stroke-linejoin="round" stroke-dasharray="0,8"></path>
            <path d="M26.233,254.36 C26.233,380.504 128.494,482.765 254.638,482.765 C380.78,482.765 483.04,380.504 483.04,254.36 C483.04,128.216 380.78,25.955 254.638,25.955 C128.494,25.955 26.233,128.216 26.233,254.36 Z" id="Stroke-41" stroke="#9F7A45" stroke-width="4"></path>
            <path d="M306.23,164.754 L332.25,209.544 L409.63,164.865 L306.23,164.754 Z M203.087,164.754 L177.069,209.544 L99.683,164.865 L203.087,164.754 Z M306.23,343.985 L332.25,299.195 L409.63,343.875 L306.23,343.985 Z M203.087,343.985 L177.069,299.195 L99.683,343.875 L203.087,343.985 Z" id="Stroke-42" stroke="#9F7A45" stroke-width="4" stroke-linecap="round" stroke-linejoin="round"></path>
            <path d="M261.731,75.397 C261.731,79.315 258.556,82.491 254.638,82.491 C250.72,82.491 247.544,79.315 247.544,75.397 C247.544,71.48 250.72,68.304 254.638,68.304 C258.556,68.304 261.731,71.48 261.731,75.397" id="Fill-43" fill="#9F7A45"></path>
            <path d="M106.737,164.883 C106.737,168.801 103.562,171.977 99.644,171.977 C95.726,171.977 92.55,168.801 92.55,164.883 C92.55,160.966 95.726,157.79 99.644,157.79 C103.562,157.79 106.737,160.966 106.737,164.883" id="Fill-44" fill="#9F7A45"></path>
            <path d="M402.54,164.883 C402.54,168.801 405.71,171.977 409.63,171.977 C413.55,171.977 416.73,168.801 416.73,164.883 C416.73,160.966 413.55,157.79 409.63,157.79 C405.71,157.79 402.54,160.966 402.54,164.883" id="Fill-45" fill="#9F7A45"></path>
            <path d="M261.731,433.342 C261.731,429.424 258.556,426.248 254.638,426.248 C250.72,426.248 247.544,429.424 247.544,433.342 C247.544,437.259 250.72,440.435 254.638,440.435 C258.556,440.435 261.731,437.259 261.731,433.342" id="Fill-46" fill="#9F7A45"></path>
            <path d="M106.737,343.837 C106.737,339.919 103.562,336.743 99.644,336.743 C95.726,336.743 92.55,339.919 92.55,343.837 C92.55,347.754 95.726,350.93 99.644,350.93 C103.562,350.93 106.737,347.754 106.737,343.837" id="Fill-47" fill="#9F7A45"></path>
            <path d="M402.54,343.855 C402.54,339.937 405.71,336.762 409.63,336.762 C413.55,336.762 416.73,339.937 416.73,343.855 C416.73,347.773 413.55,350.949 409.63,350.949 C405.71,350.949 402.54,347.773 402.54,343.855" id="Fill-48" fill="#9F7A45"></path>
            <path d="M75.675,254.358 C75.675,353.208 155.808,433.341 254.658,433.341 C353.51,433.341 433.64,353.208 433.64,254.358 C433.64,155.509 353.51,75.375 254.658,75.375 C155.808,75.375 75.675,155.509 75.675,254.358 Z" id="Stroke-49" stroke="#9F7A45" stroke-width="4" stroke-linecap="round" stroke-linejoin="round" stroke-dasharray="0,8"></path>
            <path d="M75.675,254.358 C75.675,353.208 155.808,433.341 254.658,433.341 C353.51,433.341 433.64,353.208 433.64,254.358 C433.64,155.509 353.51,75.375 254.658,75.375 C155.808,75.375 75.675,155.509 75.675,254.358 Z" id="Stroke-50" stroke="#9F7A45" stroke-width="2" stroke-linecap="round" stroke-linejoin="round" stroke-dasharray="0,8"></path>
            <path d="M203.087,164.754 L254.658,164.754 L254.658,75.397 L203.087,164.754 Z M306.23,343.991 L254.658,343.991 L254.658,433.348 L306.23,343.991 Z" id="Stroke-51" stroke="#9F7A45" stroke-width="4" stroke-linecap="round" stroke-linejoin="round"></path>
            <polygon id="Stroke-52" stroke="#9F7A45" stroke-width="7" points="270.19 227.435 239.084 227.435 223.532 254.372 239.084 281.31 270.19 281.31 285.74 254.372"></polygon>
        </g>
    </g>
</svg>