<svg enable-background="new 0 0 540 200" height="200" viewBox="0 0 540 200" width="540" xmlns="http://www.w3.org/2000/svg"><g fill="#fff"><path d="m12.067 179.818v4.863c0 .127 0 .465.282.684.107.084.225.17.347.254h.001c2.135 1.469 7.488 3.652 13.491 3.652h281.584c6.003 0 11.356-2.184 13.491-3.652.096-.068.188-.133.272-.195.356-.262.356-.66.356-.809v-4.801c0-.268-.219-.484-.488-.484h-28.683c.33-.957.514-1.984.514-3.053v-156.15c0-5.183-4.217-9.399-9.398-9.399h-233.754c-5.181 0-9.398 4.217-9.398 9.399v156.15c0 1.068.183 2.096.515 3.053h-28.639c-.263 0-.493.229-.493.488zm279.961-.488h-24.836l-.032-.143-.767-3.4h22.065c1.801 0 3.259-1.461 3.259-3.262v-15.197-.814-136.5c0-4.285-3.484-7.77-7.769-7.77h-233.977c-4.284 0-7.769 3.484-7.769 7.77v136.5.814 15.197c0 1.801 1.458 3.262 3.258 3.262h22.816l-.766 3.4-.032.143h-25.588c-.355-.951-.553-1.979-.553-3.053v-156.15c0-4.822 3.924-8.747 8.745-8.747h233.755c4.822 0 8.746 3.925 8.746 8.747v156.15c0 1.075-.197 2.102-.555 3.053zm-146.967 0h-76.915l.796-3.525h152.029 10.169 34.59l.795 3.525h-35.385-10.169-32.073zm-99.601-4.197c-1.437 0-2.608-1.168-2.608-2.607v-15.197-.814-136.5c0-3.925 3.194-7.118 7.119-7.118h233.979c3.924 0 7.117 3.193 7.117 7.118v136.5.814 15.197c0 1.439-1.17 2.607-2.607 2.607zm143.413 4.849h32.098 10.169 35.385.814 53.903v4.633c0 .184-.032.238-.095.283-.057.043-.112.084-.171.125h-307.993c-.081-.057-.16-.115-.233-.174-.028-.021-.031-.105-.031-.168v-4.699h54.61.816 76.94m-131.039 5.694h305.87c-2.476 1.352-7.064 2.943-12.144 2.943h-281.584c-5.081 0-9.667-1.592-12.142-2.943z"/><path d="m48.479 21.585v147.194c0 .449.366.812.815.812h235.38c.449 0 .814-.363.814-.812v-147.194c0-.45-.365-.814-.814-.814h-235.379c-.449 0-.816.364-.816.814zm.816 0h235.38v147.194h-235.38z"/><path d="m49.295 21.585h235.38v147.194h-235.38z" opacity=".1"/><path d="m339.041 52.229v130.804c0 1.744.68 3.344 1.912 4.502 1.194 1.119 2.798 1.736 4.514 1.736h88.302c3.548 0 6.435-2.678 6.435-5.969v-131.073c0-1.589-.616-3.086-1.733-4.219-1.113-1.131-2.579-1.752-4.128-1.752h-89.223c-1.641 0-3.173.621-4.313 1.748-1.139 1.12-1.766 2.622-1.766 4.223zm.456 0c0-3.047 2.469-5.516 5.622-5.516h89.223c2.937 0 5.405 2.469 5.405 5.516v131.074c0 3.047-2.681 5.516-5.979 5.516h-88.302c-3.245 0-5.97-2.379-5.97-5.785v-130.805z"/><path d="m341.6 48.813c-.92.908-1.427 2.121-1.427 3.416v130.804c0 1.428.553 2.732 1.555 3.672.981.924 2.309 1.432 3.734 1.432h88.302c2.923 0 5.3-2.168 5.3-4.834v-131.074c0-1.288-.499-2.503-1.406-3.422-.898-.911-2.077-1.412-3.32-1.412h-89.221c-1.34 0-2.591.504-3.517 1.418zm-.973 3.416c0-1.173.46-2.271 1.291-3.094.843-.829 1.978-1.287 3.198-1.287h89.221c1.12 0 2.186.454 2.996 1.277.823.833 1.277 1.937 1.277 3.104v131.074c0 2.416-2.176 4.381-4.847 4.381h-88.302c-1.31 0-2.525-.465-3.424-1.309-.91-.854-1.411-2.041-1.411-3.342v-130.804z"/><path d="m345.431 59.602v116.261c0 .314.254.568.567.568h87.196c.312 0 .566-.254.566-.568v-116.261c0-.312-.254-.568-.566-.568h-87.196c-.313 0-.567.256-.567.568zm.567 0h87.196v116.261h-87.196z"/><path d="m345.998 59.602h87.196v116.261h-87.196z" opacity=".1"/><path d="m475.405 86.976v94.299c0 2.137.833 4.145 2.346 5.656 1.511 1.508 3.521 2.34 5.66 2.34h36.517c2.138 0 4.147-.832 5.66-2.34 1.512-1.512 2.345-3.52 2.345-5.656v-63.074-4.688-4.48-4.688-4.549-5.86-6.96c0-2.138-.833-4.145-2.345-5.655-1.513-1.511-3.522-2.343-5.66-2.343h-26.6-9.237-.68c-2.139 0-4.149.832-5.66 2.343-1.513 1.511-2.346 3.517-2.346 5.655zm51.977 0v1.722h-.553v-1.727c0-3.808-3.09-6.896-6.901-6.896h-36.517c-3.812 0-6.902 3.088-6.902 6.896v1.727h-.552v-1.722c0-1.989.774-3.86 2.183-5.266s3.279-2.18 5.271-2.18h36.517c1.99 0 3.862.773 5.271 2.18 1.406 1.406 2.183 3.277 2.183 5.266zm-50.873 2.549v89.27h-.552v-89.27zm6.902-8.898h36.517c3.501 0 6.351 2.847 6.351 6.344v94.298c0 3.498-2.85 6.344-6.351 6.344h-36.517c-3.503 0-6.352-2.846-6.352-6.344v-94.298c.001-3.497 2.849-6.344 6.352-6.344zm43.971 98.168h-.553v-89.27h.553v4.411.415 5.032.413 4.549.414 3.861.412 4.48.414 3.861.412zm-51.425 2.48v-1.654h.552v1.648c0 3.809 3.09 6.895 6.902 6.895h36.517c3.812 0 6.901-3.086 6.901-6.895v-1.648h.553v1.654c0 1.988-.776 3.857-2.184 5.266-1.408 1.404-3.28 2.18-5.271 2.18h-36.517c-1.992 0-3.862-.775-5.271-2.18-1.408-1.408-2.182-3.277-2.182-5.266z"/><path d="m479.128 94.971v78.308c0 .305.247.553.552.553h44.118c.303 0 .551-.248.551-.553v-78.308c0-.306-.248-.552-.551-.552h-44.118c-.305 0-.552.247-.552.552zm.552 0h44.118v78.308h-44.118z"/><path d="m479.677 94.971h44.118v78.308h-44.118z" opacity=".1"/></g></svg>