<?xml version="1.0" encoding="utf-8"?>
<!-- Generator: Adobe Illustrator 16.0.4, SVG Export Plug-In . SVG Version: 6.00 Build 0)  -->
<!DOCTYPE svg PUBLIC "-//W3C//DTD SVG 1.1//EN" "http://www.w3.org/Graphics/SVG/1.1/DTD/svg11.dtd">
<svg version="1.1" id="Layer_1" xmlns="http://www.w3.org/2000/svg" xmlns:xlink="http://www.w3.org/1999/xlink" x="0px" y="0px"
	 width="540px" height="200px" viewBox="0 0 540 200" enable-background="new 0 0 540 200" xml:space="preserve">
<g>
	<g>
		<g>
			<path fill="#FFFFFF" d="M12.067,179.818v4.863c0,0.127,0,0.465,0.282,0.684c0.107,0.084,0.225,0.17,0.347,0.254h0.001
				c2.135,1.469,7.488,3.652,13.491,3.652h281.584c6.003,0,11.356-2.184,13.491-3.652l0,0c0.096-0.068,0.188-0.133,0.272-0.195
				c0.356-0.262,0.356-0.66,0.356-0.809v-4.801c0-0.268-0.219-0.484-0.488-0.484h-28.683c0.33-0.957,0.514-1.984,0.514-3.053V20.127
				c0-5.183-4.217-9.399-9.398-9.399H50.082c-5.181,0-9.398,4.217-9.398,9.399v156.15c0,1.068,0.183,2.096,0.515,3.053H12.56
				C12.297,179.33,12.067,179.559,12.067,179.818z M292.028,179.33h-24.836l-0.032-0.143l-0.767-3.4h22.065
				c1.801,0,3.259-1.461,3.259-3.262v-15.197v-0.814v-136.5c0-4.285-3.484-7.77-7.769-7.77H49.971c-4.284,0-7.769,3.484-7.769,7.77
				v136.5v0.814v15.197c0,1.801,1.458,3.262,3.258,3.262h22.816l-0.766,3.4l-0.032,0.143H41.89
				c-0.355-0.951-0.553-1.979-0.553-3.053V20.127c0-4.822,3.924-8.747,8.745-8.747h233.755c4.822,0,8.746,3.925,8.746,8.747v156.15
				C292.583,177.352,292.386,178.379,292.028,179.33z M145.061,179.33H68.146l0.796-3.525h152.029h10.169h34.59l0.795,3.525H231.14
				h-10.169h-32.073H145.061z M45.46,175.133c-1.437,0-2.608-1.168-2.608-2.607v-15.197v-0.814v-136.5
				c0-3.925,3.194-7.118,7.119-7.118h233.979c3.924,0,7.117,3.193,7.117,7.118v136.5v0.814v15.197c0,1.439-1.17,2.607-2.607,2.607
				H45.46z M188.873,179.982h32.098h10.169h35.385h0.814h53.903v4.633c0,0.184-0.032,0.238-0.095,0.283
				c-0.057,0.043-0.112,0.084-0.171,0.125H12.983c-0.081-0.057-0.16-0.115-0.233-0.174c-0.028-0.021-0.031-0.105-0.031-0.168v-4.699
				h54.61h0.816h76.94 M14.046,185.676h305.87c-2.476,1.352-7.064,2.943-12.144,2.943H26.188
				C21.107,188.619,16.521,187.027,14.046,185.676z"/>
			<path fill="#FFFFFF" d="M48.479,21.585v147.194c0,0.449,0.366,0.812,0.815,0.812h235.38c0.449,0,0.814-0.363,0.814-0.812V21.585
				c0-0.45-0.365-0.814-0.814-0.814H49.295C48.846,20.771,48.479,21.135,48.479,21.585z M49.295,21.585h235.38v147.194H49.295
				V21.585z"/>
		</g>
		<rect x="49.295" y="21.585" opacity="0.1" fill="#FFFFFF" width="235.38" height="147.194"/>
	</g>
	<g>
		<g>
			<path fill="#FFFFFF" d="M339.041,52.229v130.804c0,1.744,0.68,3.344,1.912,4.502c1.194,1.119,2.798,1.736,4.514,1.736h88.302
				c3.548,0,6.435-2.678,6.435-5.969V52.229c0-1.589-0.616-3.086-1.733-4.219c-1.113-1.131-2.579-1.752-4.128-1.752h-89.223
				c-1.641,0-3.173,0.621-4.313,1.748C339.668,49.126,339.041,50.628,339.041,52.229z M339.497,52.229
				c0-3.047,2.469-5.516,5.622-5.516h89.223c2.937,0,5.405,2.469,5.405,5.516v131.074c0,3.047-2.681,5.516-5.979,5.516h-88.302
				c-3.245,0-5.97-2.379-5.97-5.785V52.229z"/>
			<path fill="#FFFFFF" d="M341.6,48.813c-0.92,0.908-1.427,2.121-1.427,3.416v130.804c0,1.428,0.553,2.732,1.555,3.672
				c0.981,0.924,2.309,1.432,3.734,1.432h88.302c2.923,0,5.3-2.168,5.3-4.834V52.229c0-1.288-0.499-2.503-1.406-3.422
				c-0.898-0.911-2.077-1.412-3.32-1.412h-89.221C343.777,47.395,342.526,47.899,341.6,48.813z M340.627,52.229
				c0-1.173,0.46-2.271,1.291-3.094c0.843-0.829,1.978-1.287,3.198-1.287h89.221c1.12,0,2.186,0.454,2.996,1.277
				c0.823,0.833,1.277,1.937,1.277,3.104v131.074c0,2.416-2.176,4.381-4.847,4.381h-88.302c-1.31,0-2.525-0.465-3.424-1.309
				c-0.91-0.854-1.411-2.041-1.411-3.342V52.229z"/>
			<path fill="#FFFFFF" d="M345.431,59.602v116.261c0,0.314,0.254,0.568,0.567,0.568h87.196c0.312,0,0.566-0.254,0.566-0.568V59.602
				c0-0.312-0.254-0.568-0.566-0.568h-87.196C345.685,59.034,345.431,59.29,345.431,59.602z M345.998,59.602h87.196v116.261h-87.196
				V59.602z"/>
		</g>
		<rect x="345.998" y="59.602" opacity="0.1" fill="#FFFFFF" width="87.196" height="116.261"/>
	</g>
	<g>
		<g>
			<path fill="#FFFFFF" d="M475.405,86.976v94.299c0,2.137,0.833,4.145,2.346,5.656c1.511,1.508,3.521,2.34,5.66,2.34h36.517
				c2.138,0,4.147-0.832,5.66-2.34c1.512-1.512,2.345-3.52,2.345-5.656v-63.074v-4.688v-4.48v-4.688v-4.549v-5.86v-6.96
				c0-2.138-0.833-4.145-2.345-5.655c-1.513-1.511-3.522-2.343-5.66-2.343h-26.6h-9.237h-0.68c-2.139,0-4.149,0.832-5.66,2.343
				C476.238,82.832,475.405,84.838,475.405,86.976z M527.382,86.976v1.722h-0.553v-1.727c0-3.808-3.09-6.896-6.901-6.896h-36.517
				c-3.812,0-6.902,3.088-6.902,6.896v1.727h-0.552v-1.722c0-1.989,0.774-3.86,2.183-5.266c1.409-1.406,3.279-2.18,5.271-2.18
				h36.517c1.99,0,3.862,0.773,5.271,2.18C526.605,83.116,527.382,84.987,527.382,86.976z M476.509,89.525v89.27h-0.552v-89.27
				H476.509z M483.411,80.627h36.517c3.501,0,6.351,2.847,6.351,6.344v94.298c0,3.498-2.85,6.344-6.351,6.344h-36.517
				c-3.503,0-6.352-2.846-6.352-6.344V86.971C477.06,83.474,479.908,80.627,483.411,80.627z M527.382,178.795h-0.553v-89.27h0.553
				v4.411v0.415v5.032v0.413v4.549v0.414v3.861v0.412v4.48v0.414v3.861v0.412V178.795z M475.957,181.275v-1.654h0.552v1.648
				c0,3.809,3.09,6.895,6.902,6.895h36.517c3.812,0,6.901-3.086,6.901-6.895v-1.648h0.553v1.654c0,1.988-0.776,3.857-2.184,5.266
				c-1.408,1.404-3.28,2.18-5.271,2.18h-36.517c-1.992,0-3.862-0.775-5.271-2.18C476.731,185.133,475.957,183.264,475.957,181.275z"
				/>
			<path fill="#FFFFFF" d="M479.128,94.971v78.308c0,0.305,0.247,0.553,0.552,0.553h44.118c0.303,0,0.551-0.248,0.551-0.553V94.971
				c0-0.306-0.248-0.552-0.551-0.552H479.68C479.375,94.419,479.128,94.666,479.128,94.971z M479.68,94.971h44.118v78.308H479.68
				V94.971z"/>
		</g>
		<rect x="479.677" y="94.971" opacity="0.1" fill="#FFFFFF" width="44.118" height="78.308"/>
	</g>
</g>
</svg>
